<?xml version="1.0" encoding="utf-8"?>
<svg version="1.1" id="Layer_1" xmlns="http://www.w3.org/2000/svg" x="0" y="0" viewBox="0 0 1032 773.4" enable-background="new 0 0 1032 773.4" xml:space="preserve">
  <path fill="#FFF" d="M136.9 495h852l33.7 29.5-6.8 74.7-37.9 16.3H130.1c26.8-32.1 18.4-93.2 6.8-120.5z"/>
  <defs>
    <filter id="Adobe_OpacityMaskFilter" filterUnits="userSpaceOnUse" x="130" y="503.3" width="885.1" height="98">
      <feColorMatrix values="1 0 0 0 0 0 1 0 0 0 0 0 1 0 0 0 0 0 1 0"/>
    </filter>
  </defs>
  <mask maskUnits="userSpaceOnUse" x="130" y="503.3" width="885.1" height="98" id="SVGID_1_">
    <g filter="url(#Adobe_OpacityMaskFilter)">
      <path fill="#FFF" d="M136.9 495h1002l33.7 29.5-6.8 74.7-37.9 16.3H130.1c26.8-32.1 18.4-93.2 6.8-120.5z"/>
    </g>
  </mask>
  <g mask="url(#SVGID_1_)" fill="none" stroke="#EDEDED" stroke-width="2.3903" stroke-miterlimit="10">
    <path d="M130 504.4h885.2M130 509.2h885.2M130 514h885.2M130 518.8h885.2M130 523.6h885.2M130 528.3h885.2M130 533.1h885.2M130 537.9h885.2M130 542.7h885.2M130 547.5h885.2M130 552.3h885.2M130 557h885.2M130 561.8h885.2M130 566.6h885.2M130 571.4h885.2M130 576.2h885.2M130 580.9h885.2M130 585.7h885.2M130 590.5h885.2M130 595.3h885.2M130 600.1h885.2"/>
  </g>
  <linearGradient id="SVGID_00000131365994124537265360000000313641398734996884_" gradientUnits="userSpaceOnUse" x1="402.7648" y1="346.1109" x2="854.1536" y2="934.5779">
    <stop offset="0" style="stop-color:#76cabe"/>
    <stop offset="1" style="stop-color:#06528e"/>
  </linearGradient>
  <path fill="url(#SVGID_00000131365994124537265360000000313641398734996884_)" d="M120 480.2v18.4h853.3c20.5 0 37.1 16.6 37.1 37.1v32.6c0 20.5-16.6 37.1-37.1 37.1H120V628h858c29.8 0 53.9-24.2 53.9-53.9v-40c0-29.8-24.2-53.9-53.9-53.9H120z"/>
  <circle fill="#63E0C9" cx="637.8" cy="67.4" r="34.2"/>
  <path fill="#FFF" d="m642.4 68.6 8.9 8.9H624.4l8.9-8.9 2.5 2.3c1.2 1.1 3 1.1 4.2 0l2.4-2.3zm10.4-9.8v17c0 .3-.1.6-.2.8l-9.1-9.1 9.3-8.7zm-29.9 0 9.2 8.7-9.1 9.1c-.1-.2-.2-.5-.2-.8V59c0-.1.1-.2.1-.2zm1.6-1.5h26.7c.2 0 .5.1.7.2l-13 12.4c-.6.6-1.4.6-2 0l-13.1-12.4c.2-.2.4-.2.7-.2zm0-1.7c-1.8 0-3.2 1.5-3.2 3.3v16.8c0 1.8 1.4 3.3 3.2 3.3h26.7c1.8 0 3.2-1.5 3.2-3.3V59c0-1.8-1.4-3.3-3.2-3.3h-26.7z"/>
  <circle fill="#215279" cx="305.5" cy="169.4" r="34.2"/>
  <g fill="#FFF">
    <path d="M314.4 157.1h-23.9c-.6 0-1.1.5-1.1 1.1v22c0 .6.5 1.1 1.1 1.1h30c.6 0 1.1-.5 1.1-1.1v-22c0-.6-.5-1.1-1.1-1.1h-6.1zm-18.5 21.5h-5.7v-3.8h5.7v3.8zm0-5.1h-5.7v-3.8h5.7v3.8zm0-5.1h-5.7v-3.8h5.7v3.8zm0-5.2h-5.7v-3.8h5.7v3.8zm17.6 15.4h-16c-.5 0-.9-.4-.9-.9v-17.4c0-.5.4-.9.9-.9h16c.5 0 .9.4.9.9v17.4c0 .5-.4.9-.9.9zm7.4 0h-5.7v-3.8h5.7v3.8zm0-5.1h-5.7v-3.8h5.7v3.8zm0-5.1h-5.7v-3.8h5.7v3.8zm0-5.2h-5.7v-3.8h5.7v3.8z"/>
    <path d="m302.6 173.9 8.1-4c.7-.3.7-1.3 0-1.7l-8.1-3.9c-.6-.3-1.3.2-1.3.8v7.9c-.1.8.7 1.2 1.3.9z"/>
  </g>
  <circle fill="#84396C" cx="703.7" cy="211.8" r="34.2"/>
  <path fill="#FFF" d="M705.1 198.1c9.1 0 16.6 5.7 16.6 12.7 0 7-7.4 12.7-16.6 12.7-1.2 0-2.5-.1-3.8-.4l-1.1-.2-.9.6-5 3.5v-6.6l-1-.8c-3.1-2.4-4.8-5.6-4.8-8.9.1-6.9 7.5-12.6 16.6-12.6m0-2.6c-10.6 0-19.1 6.8-19.1 15.3 0 4.3 2.2 8.2 5.8 10.9V232l9.1-6.3c1.4.2 2.8.4 4.3.4 10.6 0 19.1-6.8 19.1-15.3 0-8.4-8.6-15.3-19.2-15.3z"/>
  <path fill="none" stroke="#FFF" stroke-width="2.5879" stroke-linecap="round" stroke-miterlimit="10" d="M714.3 205.2h-17.7M714.3 210.4h-17.7M714.3 215.5h-17.7"/>
  <g fill="none" stroke="#63E0C9" stroke-miterlimit="10">
    <path d="M871.4 296.4c-1.9.4-3.9.8-5.9 1.1"/>
    <path stroke-dasharray="12.0014,12.0014" d="M853.6 299.1c-89.4 9.4-232-32.2-197.1-109.3 14.1-31.2 48.7-36.1 71.7-24.1 25.6 13.3 33.4 44.7 23.4 66.6-12.7 28.1-38.9 35.5-61.8 30-74.4-17.8-95.6-110.3-104.1-192.1-2.9-27.6 22-54.4 49.5-55.2 25.8-.7 50.4 17.1 54 42.5 4.8 34.2-17.8 60.5-49.1 62-98.4 4.7-385.7-64.1-386.6 50.9-.3 35.8 30.3 53.4 57.2 51.1 25.2-2.1 47.8-22.6 47-50-1.7-65.4-72.6-85.1-162.2-100"/>
    <path d="M189.5 70.6c-2-.3-3.9-.6-5.9-1"/>
  </g>
  <linearGradient id="SVGID_00000042703204703108493050000009947748183919667072_" gradientUnits="userSpaceOnUse" x1="663.8238" y1="263.8626" x2="628.455" y2="302.5156">
    <stop offset="0" style="stop-color:#76cabe"/>
    <stop offset="1" style="stop-color:#06528e;stop-opacity:.6"/>
  </linearGradient>
  <path fill="url(#SVGID_00000042703204703108493050000009947748183919667072_)" d="M618 303.4h56.1c1.2 0 2.2-1 2.2-2.2v-36c0-1.2-1-2.2-2.2-2.2H618c-1.2 0-2.2 1-2.2 2.2v36c0 1.3 1 2.2 2.2 2.2z"/>
  <path fill="#1C3B6A" d="M427.6 437.3h121.8v30.9H427.6z"/>
  <path fill="#59274B" d="M403.4 503.2c6.9 17.4 27.5 25.6 45.2 7.8 17.7-17.8-45.2-7.8-45.2-7.8z"/>
  <path fill="#21527A" d="M444.1 421.4C382.2 406 322.5 384.1 275.5 402c-20.1 7.7-31.2 40.4-27.5 52 3.7 11.6 26.4 34.1 59.2 42.2 32.8 8.1 146.4 20.3 157 21.1 5.8-16.2 29.1-40.9 18.4-58.5-20.5-1-67-12.5-80.8-16.2 33.3.4 42.3-21.2 42.3-21.2z"/>
  <linearGradient id="SVGID_00000147181396244845044320000002523020714324441222_" gradientUnits="userSpaceOnUse" x1="247.4742" y1="471.7625" x2="472.6639" y2="471.7625">
    <stop offset="0" style="stop-color:#21527a"/>
    <stop offset="1" style="stop-color:#73c0b7"/>
  </linearGradient>
  <path fill="url(#SVGID_00000147181396244845044320000002523020714324441222_)" d="M472.7 510.7c-97.3-9-181.7-53.5-219.7-84.4-5.3 13.8-6.3 23.7-5 27.8 3.7 11.6 26.4 34.1 59.2 42.2s146.4 20.3 157 21.1c1.8-4.9 6.8 0 8.5-6.7z"/>
  <path fill="#21527A" d="M524.2 419.9c59.6-22.5 116.4-51.2 165.2-38.9 20.8 5.3 35.7 36.5 33.4 48.5-2.3 12-22.3 37-53.9 48.8-31.6 11.8-143.1 37.2-153.5 39.2-7.7-15.4-16-47.5-25.1-56 20.2-3.4 65.1-20.2 78.3-25.5-33 4.2-44.4-16.1-44.4-16.1z"/>
  <linearGradient id="SVGID_00000146501777856793772980000006974805108413879741_" gradientUnits="userSpaceOnUse" x1="719.2875" y1="428.9328" x2="544.6179" y2="504.4311">
    <stop offset="0" style="stop-color:#21527a"/>
    <stop offset="1" style="stop-color:#73c0b7"/>
  </linearGradient>
  <path fill="url(#SVGID_00000146501777856793772980000006974805108413879741_)" d="M518.4 510.7C614 490.4 680.9 438.3 715 403.1c3.1 7.2 9.1 17.7 7.8 26.3-1.9 12.1-22.3 37-53.9 48.8s-143.1 37.2-153.5 39.2c-2.3-4.5 5.4-.2 3-6.7z"/>
  <linearGradient id="SVGID_00000045594387314519745420000016121741307768640682_" gradientUnits="userSpaceOnUse" x1="548.6675" y1="378.168" x2="439.7855" y2="270.3258">
    <stop offset="0" style="stop-color:#873b6d"/>
    <stop offset="1" style="stop-color:#571c43"/>
  </linearGradient>
  <path fill="url(#SVGID_00000045594387314519745420000016121741307768640682_)" d="M405.9 245.1c-8.1 8-23.1 41.5-30.8 61.7-8.7 5.4-3.6 9.8-4.4 12.6-.9 3.3-5.6 7.3-1.4 9.5 0 18.8 16.1 35.9 37.6 62.4 1.1 1.4 157.4-10.1 167.9-14.3 10.5-4.2 26.1-56.2 22.8-62 4.1-9 9.4-11.1-3-20.1.1-10.9-9-33.3-15.3-40.2-6.4-6.9-34.1-15.1-34.1-15.1l-139.3 5.5z"/>
  <linearGradient id="SVGID_00000132078998483430143590000007443692311189666724_" gradientUnits="userSpaceOnUse" x1="587.1229" y1="465.5584" x2="206.8733" y2="384.8395">
    <stop offset="0" style="stop-color:#76a0c1"/>
    <stop offset="1" style="stop-color:#963894"/>
  </linearGradient>
  <path fill="url(#SVGID_00000132078998483430143590000007443692311189666724_)" d="M574.1 451.9H402.7c-1.1 0-1.9-.9-1.9-1.9v-12.3H576V450c0 1.1-.8 1.9-1.9 1.9z"/>
  <linearGradient id="SVGID_00000166678171385322070470000017305169192218165947_" gradientUnits="userSpaceOnUse" x1="478.9547" y1="479.763" x2="566.8462" y2="533.5552">
    <stop offset="0" style="stop-color:#76a0c1"/>
    <stop offset="1" style="stop-color:#f0efef"/>
  </linearGradient>
  <path fill="url(#SVGID_00000166678171385322070470000017305169192218165947_)" d="M480.7 458.6c-2.2-4.7 16.7-7.7 24.9-5 6.2 9.8 3.3 15.1 7.9 21s16 18.4 15.5 32.1c-.5 13.7.1 34.2 1.3 39.3-12 .9-19-2.8-22.9-7.9s-6.6-15.1-13.9-18c-7.3-2.9-18.9-2.7-18.9-2.7s-4.5-28.9 0-33.7 9.4-18.4 6.1-25.1z"/>
  <path fill="#833A6D" d="M504.8 453.6c-.7-4.9 13.2-2.4 15.5 0 2.2 2.4-.3 11 3.4 16.5 3.7 5.6 17.6 14.9 21.7 27.4 3.7 11.2 2.4 31.9-1.7 39.3-4.2 7.6-9.4 10.2-14.1 9.3-5.3-17.3.4-30-3.6-45.2-3.9-15.2-5-12.6-11.8-24.4-6.9-11.9-7.6-9.6-9.4-22.9z"/>
  <linearGradient id="SVGID_00000075139109366250866090000003663635144085625229_" gradientUnits="userSpaceOnUse" x1="461.7401" y1="505.4886" x2="510.6421" y2="534.8299">
    <stop offset="0" style="stop-color:#76a0c1"/>
    <stop offset="1" style="stop-color:#f0efef"/>
  </linearGradient>
  <path fill="url(#SVGID_00000075139109366250866090000003663635144085625229_)" d="M467 501.5c-6 2.3-7.9 14.8-5.3 18 2.6 3.2 20.3 2.3 22.9-1.4 2.6-3.7 1.4-12.4-3.7-15.2-5.2-2.8-10.2-2.9-13.9-1.4z"/>
  <linearGradient id="SVGID_00000054232528496388431840000003408612867996234369_" gradientUnits="userSpaceOnUse" x1="472.0453" y1="187.7481" x2="486.1411" y2="268.1616">
    <stop offset="0" style="stop-color:#571c43"/>
    <stop offset="1" style="stop-color:#873b6d"/>
  </linearGradient>
  <path fill="url(#SVGID_00000054232528496388431840000003408612867996234369_)" d="M500.3 189.8c-59.3-12.3-139.9 26.9-112.7 38.6-11.6 8.2-11.7 22.1 9.1 22.8 18.9-3.6 59.7 9.7 77.6 15.6 17.9 5.9 48.5-12.9 69.4-15.6 20.8-2.8 41 4 39.9-6.3-1.1-10.3-2.6-13.8-13.1-15.1 9.7-2.5 10.8-14.2 0-21-18.1-11.5-33.6-7.5-48.5-9.9-15-2.3-21.7-9.1-21.7-9.1z"/>
  <g fill="none" stroke-width="1.5743" stroke-miterlimit="10">
    <path id="XMLID_00000085229161990814811680000008335999084851901088_" stroke="#FFF" stroke-linecap="round" d="M517.3 237.2c11.5 11.6-5 58.6 1.1 73.3"/>
    <path id="XMLID_00000180365726903439622660000004477079165397527188_" stroke="#EFB042" d="M518.4 310.9v8.6"/>
  </g>
  <g fill="none" stroke-width="1.5743" stroke-miterlimit="10">
    <path id="XMLID_00000085237895558363876670000009441062532732122774_" stroke="#FFF" stroke-linecap="round" d="M462.6 234.3c-8.5 23 8.2 41.9 1.1 73.3"/>
    <path id="XMLID_00000022522197644730912270000016124205752055442109_" stroke="#EFB042" d="M463.7 308v8.6"/>
  </g>
  <linearGradient id="SVGID_00000036930539874112117180000014091281078250744463_" gradientUnits="userSpaceOnUse" x1="465.4843" y1="223.4241" x2="516.959" y2="223.4241">
    <stop offset=".233" style="stop-color:#e68d7a"/>
    <stop offset="1" style="stop-color:#fab191"/>
  </linearGradient>
  <path fill="url(#SVGID_00000036930539874112117180000014091281078250744463_)" d="M467.4 220.6c.4 4.2-.4 7.5-1.9 9.5 11.2 5.2 43.7 7.3 51.5 1.2-4.6-6-5.1-14.6-4.8-19.4-11 11.5-44.8 8.7-44.8 8.7z"/>
  <linearGradient id="SVGID_00000085951095652194294150000015850175095994890149_" gradientUnits="userSpaceOnUse" x1="457.2726" y1="110.2077" x2="492.6619" y2="171.5491">
    <stop offset=".233" style="stop-color:#db957d"/>
    <stop offset="1" style="stop-color:#fab191"/>
  </linearGradient>
  <path fill="url(#SVGID_00000085951095652194294150000015850175095994890149_)" d="M488 226.1c-12.8 1.6-33.7-10.2-44.8-29.5-11.1-19.3-14.5-47.2-4-59.1 35.1-39.5 87-30.6 101.6 8.2 12.6 33.4-2.8 50-13 60s-19.4 17.9-39.8 20.4z"/>
  <linearGradient id="SVGID_00000041981283166793171600000006061809449814183607_" gradientUnits="userSpaceOnUse" x1="429.106" y1="221.9444" x2="550.7735" y2="20.2051">
    <stop offset="0" style="stop-color:#06528e"/>
    <stop offset="1" style="stop-color:#76cabe"/>
  </linearGradient>
  <path fill="url(#SVGID_00000041981283166793171600000006061809449814183607_)" d="M499.1 116.5c8.5-3.5 15.9-.4 17.4 4.1 3.2 16.3 22.7 28.9 25.4 28.2-.9 9.6 1.9 21.5 2 27.7.1 11.2-6.6 20.3-15.1 23 8.1 6.8 14.9 1.6 16.9-.1 1.2 5.9-2.6 13.3-1.7 18.5.9 5.2 3 8.3 5.2 9.8-4.5-11.7 5.2-18.5 5.5-22 2.4 5.2-.2 9.8-1.1 13.5s-.9 11.8 3.9 14.6c-2.6-7.8 1.7-15.3 3.3-18.5 1.7-3.1 2.2-8.5 0-11.1 8.5 2.4 9.4 7.4 7.6 11.3-1.8 3.9.2 10.5 2.6 13.1.7-9 4.8-11.4 5.7-16.4s-1.8-10.9-6.6-13.8c.5-9.9 31.2-26.2 9.4-52.2 8.7-7.8 5.6-15.8 1-18.5 6.8-14.5-3.6-29.1-17.8-30.7 3-9-6-11.5-11-17.8-3.5-4.4-3-14.6-8.3-14.6-5.4 0-12.8 4.2-13.8 5.7 1.3-29-16.6-32.7-20.7-40.4s.6-14 4.2-14.8c-9.8-.7-18.1 7-14 17.9-7.9-10-16.4-7.9-21.2-13.7-4.8-5.7-3-15.7 1.7-19-13.3 7.6-18.6 22.2-12.2 28.4s9.8 10.2 8.5 15.5c-11.6-9.4-26.3 5.6-38.3 6.8-10 1-21.7-4.9-24.1-17.7-2.8 10.9 2.2 33.2 8.1 35.8-14.2 2.2-26.2 22.2-50.8 7.9 6.1 18.5 26.8 26.8 38.7 19.1-7.3 9.3-24.6 1-31.9 20.7 13.6-3.1 14.8-6.1 17.8-3.9-3.9 15.8-13.2 14.3-32.6 13.1 4.3 6.1 10.7 10.2 14.5 11.7 5.2 2 14.4 5.4 20.7 1.9-16.6 13.3-17.1 39.8-11.9 48.1-.2-7.6 12.4-10.2 15.9-18.8-5.9 17.5 7.9 29.9 5.2 37.5-2.8 7.6-9.6 13.3-6.8 17.9.9-6.8 11.1-10.3 13.3-15.7 2.2-5.4 1.5-7.2 1.3-9.6 3.3-.1 3.9-2.2 5.2-3.7-2.4 7 2.6 7.8-.2 16.8s3 22.9 9.8 29.4c6.8 6.5-5.2 12-8.1 13.7 15.5-2.8 20.7-10.2 17.2-19.9-3.5-9.8-5.7-12.6-.2-18.3 3.5 7 6.1 10.2 3.9 14.6-2.2 4.4-2.4 17 8.9 22.3 11.3 5.4 10.3 9.8 8.7 13.5 1.8-11.8-7.4-21.8-8.3-27s8.3-18.9 14.2-20.2c-11.7-6.2-28.3-28.8-30.5-42.5-2.2-13.7 6.2-37 10.4-42 14.7 16.1 29.5-19.2 37.1-18.1s9 3.9 16-1.1z"/>
  <path fill="#B77B6C" d="M465.7 178.8c-2.4 0-4.3-1.9-4.3-4.3v-5c0-2.4 1.9-4.3 4.3-4.3s4.3 1.9 4.3 4.3v5c-.1 2.4-2 4.3-4.3 4.3zM513.9 178.8c-2.4 0-4.3-1.9-4.3-4.3v-5c0-2.4 1.9-4.3 4.3-4.3s4.3 1.9 4.3 4.3v5c-.1 2.4-2 4.3-4.3 4.3z"/>
  <path fill="none" stroke="#BF8071" stroke-width="5.0594" stroke-linecap="round" stroke-miterlimit="10" d="M527.1 154.3c-6.8-1.4-17.1 0-23.4 4.2M453.2 156.7c6.6-2.1 16.9-1.8 23.6 1.8"/>
  <path fill="#BC539C" d="M477.7 203.6c6.9 2 7.3 1.7 12 1.7 5.4 0 5.8-.1 11.6-1.7-5 2.8-5.5 6.2-11.4 6.2s-9.1-5-12.2-6.2z"/>
  <path fill="#DB957D" d="M490.6 195.9c2.4 0 4-1 4.1-1.4.1-.2-2.1.4-4.2.3-2.1 0-4.1-.7-3.7-.3.8 1.1 3.8 1.4 3.8 1.4z"/>
  <g fill="#873B6D">
    <path d="m543.4 161.3-.1-.8-.8-.1c-24-2.9-42.2.2-45.8.9-3-1.1-9-1.1-12.8-.4-26.6-3.8-46.2 0-46.4 0l-.9.2.1.9c.7 11 4 19.4 9.6 24.3 3.8 3.3 8.5 5 14 5 .8 0 1.6 0 2.4-.1 6.1-.5 11.8-3.7 16-9.1 4.4-5.6 6.8-12.3 6.3-18.5 3.2-.5 7.7-.5 10.3.2 1 10.7 4.4 18.1 10.1 22.8 3.8 3.1 8.3 4.7 13.5 4.7 1 0 2-.1 3-.2 6.1-.6 11.7-4 15.8-9.4 4.5-5.9 6.8-14 5.7-20.4zm-66.3 18.8c-3.9 4.9-9.1 7.9-14.6 8.3-6 .5-11-1-14.9-4.4-5.1-4.4-7.3-11.2-8.1-21.2 4-.7 19.8-2.3 42.6.8.6 5.8-.8 11.2-5 16.5zm58.9-.4c-3.8 5-8.9 8.8-14.4 9.4-5.9.6-11-1.5-15-4.8-5.2-4.3-7.6-10.2-8.5-20.2 4-.7 19.7-4.3 42.6-1.7.7 5.8-.6 12-4.7 17.3z"/>
    <path d="M543.6 167.1c-.7-1.2-.3-3.3-1.4-4.4-2.1-2-5.8-2.7-5.8-2.7 3.3-.2 7.5.9 11 .9.4 0 .5.5.2.7-1.5 1-3.9 3-4 5.5zM437.2 167.2c.7-1.2.2-3.2 1.2-4.2 1.9-2 5.4-2.7 5.4-2.7-3.1.1-7.1 1-10.4 1.1-.4 0-.5.5-.2.7 1.5.8 3.8 2.7 4 5.1z"/>
  </g>
  <linearGradient id="SVGID_00000062884390540496976910000002066172964417156284_" gradientUnits="userSpaceOnUse" x1="343.5613" y1="251.1079" x2="287.831" y2="312.0132">
    <stop offset="0" style="stop-color:#76cabe"/>
    <stop offset="1" style="stop-color:#06528e;stop-opacity:.6"/>
  </linearGradient>
  <path fill="url(#SVGID_00000062884390540496976910000002066172964417156284_)" d="M368.2 258.3H263c-3.1 0-5.5 2.5-5.5 5.5v35.7c0 3.1 2.5 5.5 5.5 5.5h74.8l22.2 9.2-7-9.2h15.3c3.1 0 5.5-2.5 5.5-5.5v-35.7c0-3-2.5-5.5-5.6-5.5z"/>
  <g opacity=".7" fill="none" stroke="#FFF" stroke-width="2.3614" stroke-linecap="round" stroke-miterlimit="10">
    <path d="M266.3 268.1h91.9M266.3 275.7h83.2M266.3 283.2h90.8M266.3 290.8H328"/>
  </g>
  <linearGradient id="SVGID_00000071561447882543643420000003202718282153682346_" gradientUnits="userSpaceOnUse" x1="623.368" y1="288.1998" x2="573.0891" y2="343.1473">
    <stop offset="0" style="stop-color:#76cabe"/>
    <stop offset="1" style="stop-color:#06528e;stop-opacity:.6"/>
  </linearGradient>
  <path fill="url(#SVGID_00000071561447882543643420000003202718282153682346_)" d="M557.7 344.2h81c1.2 0 2.2-1 2.2-2.2v-52.6c0-1.2-1-2.2-2.2-2.2h-81c-1.2 0-2.2 1-2.2 2.2V342c0 1.3 1 2.2 2.2 2.2z"/>
  <path opacity=".3" fill="#FFF" d="M592.3 314.9h37c.7 0 1.3-.6 1.3-1.3v-16.8c0-.7-.6-1.3-1.3-1.3h-37c-.7 0-1.3.6-1.3 1.3v16.8c0 .8.6 1.3 1.3 1.3zM605.6 334.2h23.8c.7 0 1.2-.5 1.2-1.2v-11.6c0-.7-.5-1.2-1.2-1.2h-23.8c-.7 0-1.2.5-1.2 1.2V333c0 .7.6 1.2 1.2 1.2z"/>
  <g opacity=".3" fill="none" stroke="#FFF" stroke-width="1.1807" stroke-linecap="round" stroke-miterlimit="10">
    <path d="M570.8 296.4h-9.5M580.5 296.4h-5.9M586 296.4h-1.9M564.2 301.8h-2.9M570.5 301.8h-3.7M576.9 301.8h-3.6M586 301.8h-6.5M570.5 307.1h-2.7M582 307.1h-8.7M586 307.1h-1.6M570.5 312.5h-6.9M576.5 312.5h-3.2M586 312.5h-6.2M581.6 317.8h-7M586 317.8h-2.1M584.3 324h-2.8M595.8 324H587M577.6 324h-8.7M599.8 324h-1.6M584.3 329.4h-6.9M590.3 329.4H587M574.3 329.4h-3.2M599.8 329.4h-6.2M595.4 334.7h-7.1M599.8 334.7h-2.1"/>
  </g>
  <linearGradient id="SVGID_00000062167279603393075350000014673679003521238666_" gradientUnits="userSpaceOnUse" x1="444.6249" y1="156.8292" x2="475.1434" y2="182.4373">
    <stop offset="0" style="stop-color:#873b6d"/>
    <stop offset=".6453" style="stop-color:#73c0b7"/>
    <stop offset="1" style="stop-color:#873b6d"/>
  </linearGradient>
  <path opacity=".72" fill="url(#SVGID_00000062167279603393075350000014673679003521238666_)" d="M477.1 180.1c-3.9 4.9-9.1 7.9-14.6 8.3-6 .5-11-1-14.9-4.4-5.1-4.4-7.3-11.2-8.1-21.2 4-.7 19.8-2.3 42.6.8.6 5.8-.8 11.2-5 16.5z"/>
  <linearGradient id="SVGID_00000052091145718880517730000002204395680131494570_" gradientUnits="userSpaceOnUse" x1="504.1321" y1="156.9503" x2="534.1033" y2="182.0991">
    <stop offset="0" style="stop-color:#873b6d"/>
    <stop offset=".6453" style="stop-color:#73c0b7"/>
    <stop offset="1" style="stop-color:#873b6d"/>
  </linearGradient>
  <path opacity=".72" fill="url(#SVGID_00000052091145718880517730000002204395680131494570_)" d="M536 179.7c-3.8 5-8.9 8.8-14.4 9.4-5.9.6-11-1.5-15-4.8-5.2-4.3-7.6-10.2-8.5-20.2 4-.7 19.7-4.3 42.6-1.7.7 5.8-.6 12-4.7 17.3z"/>
  <linearGradient id="SVGID_00000155111446577829609260000000650044471146562977_" gradientUnits="userSpaceOnUse" x1="563.2823" y1="324.2675" x2="416.5761" y2="429.2087">
    <stop offset="0" style="stop-color:#76a0c1"/>
    <stop offset="1" style="stop-color:#f0efef"/>
  </linearGradient>
  <path fill="url(#SVGID_00000155111446577829609260000000650044471146562977_)" d="M397.3 321.9H577c3.4 0 6.1 2.9 5.9 6.2L576 437.7H400.8l-9.4-109.4c-.3-3.5 2.4-6.4 5.9-6.4z"/>
  <g id="XMLID_2_" opacity=".54">
    <g id="XMLID_9_">
      <linearGradient id="SVGID_00000137838946018129493720000018014498074936806025_" gradientUnits="userSpaceOnUse" x1="522.4069" y1="361.7519" x2="451.3037" y2="395.1845">
        <stop offset=".2235" style="stop-color:#76a0c1"/>
        <stop offset="1" style="stop-color:#dbdbda"/>
      </linearGradient>
      <path fill="url(#SVGID_00000137838946018129493720000018014498074936806025_)" d="M466.9 372.6s17-12.3 33.1-12.3 13.9 13.9 3.6 23.8c-10.2 9.8-26.6 14.2-34.9 14.2-10.5 0-18.1-5-12.9-15h-.1s-4.6 5.5-4.6 11.6 6.5 8.2 11.9 8.2c7.7 0 17.1-2.9 27.6-8.6 4.9-2.7 9.7-5.9 13.9-9.9 4.2-4.1 7.6-8.5 9.5-12.6 3.9-8.6 1.6-15.8-9.4-15.8-7.6 0-16.8 3.6-24.1 7.5-4.8 2.6-9.3 5.5-13.6 8.9z"/>
    </g>
    <g id="XMLID_8_">
      <linearGradient id="SVGID_00000048473792476611368740000003693696509683286681_" gradientUnits="userSpaceOnUse" x1="524.3655" y1="365.9175" x2="453.2624" y2="399.3501">
        <stop offset=".2235" style="stop-color:#76a0c1"/>
        <stop offset="1" style="stop-color:#dbdbda"/>
      </linearGradient>
      <path fill="url(#SVGID_00000048473792476611368740000003693696509683286681_)" d="M455.4 382.7c-12.9 14.7-11.4 25.9 2.1 25.9 10 0 23.4-6 32.2-11.7 7.6-4.9 12.4-9.6 12.4-9.6h-.2s-3.4 3.1-8.8 6.4c-4.6 2.8-9.5 5.1-14.6 6.9-5 1.8-10.4 3.2-16 3.2-10.8 0-13.4-6.2-11.8-11.9 1.3-4.8 5-9.2 5-9.2h-.3z"/>
    </g>
    <g id="XMLID_7_">
      <linearGradient id="SVGID_00000178924605995533710260000013048407757189411470_" gradientUnits="userSpaceOnUse" x1="519.5854" y1="355.7515" x2="448.4823" y2="389.1841">
        <stop offset=".2235" style="stop-color:#76a0c1"/>
        <stop offset="1" style="stop-color:#dbdbda"/>
      </linearGradient>
      <path fill="url(#SVGID_00000178924605995533710260000013048407757189411470_)" d="M456.6 371.7v15.7h5.6v-8.6l4.8 8.6h4.1l4.8-8.6v8.6h5.5v-15.7h-7.8l-4.6 8.6-4.6-8.6z"/>
    </g>
    <g id="XMLID_6_">
      <linearGradient id="SVGID_00000110463941764452570330000014410336914169205683_" gradientUnits="userSpaceOnUse" x1="523.8287" y1="364.7758" x2="452.7256" y2="398.2084">
        <stop offset=".2235" style="stop-color:#76a0c1"/>
        <stop offset="1" style="stop-color:#dbdbda"/>
      </linearGradient>
      <path fill="url(#SVGID_00000110463941764452570330000014410336914169205683_)" d="M504.6 371.7h-18.1v4.9h6.2v10.8h5.7v-10.8h6.2z"/>
    </g>
    <g id="XMLID_3_">
      <linearGradient id="SVGID_00000151502548696110575360000013451244070663614876_" gradientUnits="userSpaceOnUse" x1="529.3293" y1="376.4742" x2="458.2261" y2="409.9068">
        <stop offset=".2235" style="stop-color:#76a0c1"/>
        <stop offset="1" style="stop-color:#dbdbda"/>
      </linearGradient>
      <path fill="url(#SVGID_00000151502548696110575360000013451244070663614876_)" d="M524 387.4h6.3l-8.5-15.7h-6.4l-8.5 15.7h6.3l1.3-2.5h8.1l1.4 2.5zm-7.2-6.9 1.8-3.4 1.8 3.4h-3.6z"/>
    </g>
  </g>
  <path fill="#63E0C9" d="m105.4 59.8 85.3-1.1 8.9-24.6z"/>
  <path fill="#2A6A96" d="m194.9 85.2-4.2-26.5-85.3 1.1 54.2 20.4z"/>
  <path fill="#215279" d="m187.6 68.7 7.3 16.5-14.1-2z"/>
  <path fill="#63E0C9" d="m105.4 59.8 82.2 8.9-15.3 32.9z"/>
  <linearGradient id="SVGID_00000176039553008679204380000009237781367003683725_" gradientUnits="userSpaceOnUse" x1="249.9071" y1="592.7103" x2="249.9071" y2="1002.1903">
    <stop offset="0" style="stop-color:#84396c"/>
    <stop offset="1" style="stop-color:#06528e"/>
  </linearGradient>
  <path fill="url(#SVGID_00000176039553008679204380000009237781367003683725_)" d="M0 712.1c-.3 33.8 27 61.3 60.8 61.3h431c-21.6 0-57.7-31.7-57.7-71.5 0-35.4 44.9-72.6 65.8-72.6-49.6 0-321.5.4-438.6 0-33.4-.1-60.7 26.8-61 60.2L0 712.1z"/>
  <path fill="#FFF" d="M915 644.7H467.2l-31.9 28.5 6.5 72.2 35.9 15.8h443.9c-25.5-31-17.5-90-6.6-116.5z"/>
  <defs>
    <filter id="Adobe_OpacityMaskFilter_00000028305127520556026030000006107041574139687825_" filterUnits="userSpaceOnUse" x="442.3" y="652.7" width="479.2" height="94.7">
      <feColorMatrix values="1 0 0 0 0 0 1 0 0 0 0 0 1 0 0 0 0 0 1 0"/>
    </filter>
  </defs>
  <mask maskUnits="userSpaceOnUse" x="442.3" y="652.7" width="479.2" height="94.7" id="SVGID_00000020380673537102378520000000521009711477641406_">
    <g filter="url(#Adobe_OpacityMaskFilter_00000028305127520556026030000006107041574139687825_)">
      <path fill="#FFF" d="M915 644.7H467.2l-31.9 28.5 6.5 72.2 35.9 15.8h443.8c-25.4-31-17.4-90-6.5-116.5z"/>
    </g>
  </mask>
  <g mask="url(#SVGID_00000020380673537102378520000000521009711477641406_)" fill="none" stroke="#EDEDED" stroke-width="2.2856" stroke-miterlimit="10">
    <path d="M921.5 653.9H442.3M921.5 658.5H442.3M921.5 663.1H442.3M921.5 667.7H442.3M921.5 672.4H442.3M921.5 677H442.3M921.5 681.6H442.3M921.5 686.2H442.3M921.5 690.8H442.3M921.5 695.5H442.3M921.5 700.1H442.3M921.5 704.7H442.3M921.5 709.3H442.3M921.5 713.9H442.3M921.5 718.6H442.3M921.5 723.2H442.3M921.5 727.8H442.3M921.5 732.4H442.3M921.5 737H442.3M921.5 741.7H442.3M921.5 746.3H442.3"/>
  </g>
  <path fill="#84396C" d="M931 629.2v19H481.9c-19.4 0-35.1 16.2-35.1 43.1v19c0 28.3 15.7 41.1 35.1 41.1H931v21.9H489.6c-34.2 0-61.9-27.7-61.9-61.9V691c0-34.2 27.7-61.8 61.9-61.8H931z"/>
  <path fill="#F5A81C" d="M108.8 773.4c-22.7 0-48-29.7-52.3-61.3-.9-6.9-.5-15.7.2-22.6 2.8-29.1 27.5-60 52.5-60h28.2c-33.4-.1-62.3 30.5-65.2 60-.8 8.3-1 16.6-.2 22.6 3.8 27.8 29.8 61.3 63.6 61.3h-26.8zM216.1 773.4c-22.7 0-48-29.7-52.3-61.3-.9-6.9-.5-15.7.2-22.6 2.8-29.1 27.5-60 52.5-60h28.2c-33.4-.1-62.3 30.5-65.2 60-.8 8.3-1 16.6-.2 22.6 3.8 27.8 29.8 61.3 63.6 61.3h-26.8zM397.7 773.4c-22.7 0-48-29.7-52.3-61.3-.9-6.9-.5-15.7.2-22.6 2.8-29.1 27.5-60 52.5-60h28.2c-33.4-.1-62.3 30.5-65.2 60-.8 8.3-1 16.6-.2 22.6 3.8 27.8 29.8 61.3 63.6 61.3h-26.8z"/>
  <linearGradient id="SVGID_00000103966974356939622350000016221797935258628516_" gradientUnits="userSpaceOnUse" x1="760.9532" y1="429.9149" x2="796.5264" y2="439.9034">
    <stop offset="0" style="stop-color:#fff"/>
    <stop offset="1" style="stop-color:#c9c9c4"/>
  </linearGradient>
  <path fill="url(#SVGID_00000103966974356939622350000016221797935258628516_)" d="M755.8 480.4h40.6c1.3 0 2.4-1 2.6-2.3l8.5-87h-64.1l9.9 87.1c.1 1.2 1.2 2.2 2.5 2.2z"/>
  <path fill="#215279" d="M808.9 385.9h-67.1l-.8 5.1h68.7zM806.3 376.5h-61.9l-1.1 9.4h64.1z"/>
  <defs>
    <filter id="Adobe_OpacityMaskFilter_00000124126461627268594090000009148237297197458561_" filterUnits="userSpaceOnUse" x="737.3" y="411.7" width="75.3" height="36.8">
      <feColorMatrix values="1 0 0 0 0 0 1 0 0 0 0 0 1 0 0 0 0 0 1 0"/>
    </filter>
  </defs>
  <mask maskUnits="userSpaceOnUse" x="737.3" y="411.7" width="75.3" height="36.8" id="SVGID_00000018945023362699697300000009352724562294442900_">
    <g filter="url(#Adobe_OpacityMaskFilter_00000124126461627268594090000009148237297197458561_)">
      <path fill="#FFF" d="M755.8 480.4h40.6c1.3 0 2.4-1 2.6-2.3l8.5-87h-64.1l9.9 87.1c.1 1.2 1.2 2.2 2.5 2.2z"/>
    </g>
  </mask>
  <path mask="url(#SVGID_00000018945023362699697300000009352724562294442900_)" fill="#F5A81C" d="M737.3 411.7h75.3v36.8h-75.3z"/>
  <circle fill="#FFF" cx="775.4" cy="429.2" r="14.4"/>
  <defs>
    <filter id="Adobe_OpacityMaskFilter_00000000929523997812023140000006999607776116993208_" filterUnits="userSpaceOnUse" x="767.7" y="420.7" width="16.5" height="17">
      <feColorMatrix values="1 0 0 0 0 0 1 0 0 0 0 0 1 0 0 0 0 0 1 0"/>
    </filter>
  </defs>
  <mask maskUnits="userSpaceOnUse" x="767.7" y="420.7" width="16.5" height="17" id="SVGID_00000011732740951699512890000002982409139036263830_">
    <g filter="url(#Adobe_OpacityMaskFilter_00000000929523997812023140000006999607776116993208_)">
      <path fill="#FFF" d="M765.9 418.6h20.2v20.2h-20.2z"/>
      <path fill="none" stroke="#000" stroke-width="1.2073" stroke-miterlimit="10" d="M767.3 420.9c14 3.9 6.1 14.2 15.3 16.6"/>
    </g>
  </mask>
  <ellipse transform="rotate(-42.557 775.9546 429.2442)" mask="url(#SVGID_00000011732740951699512890000002982409139036263830_)" fill="#215279" cx="776" cy="429.2" rx="6.3" ry="9.5"/>
  <path fill="#63E0C9" d="m920.1 671.8 35.7-34.7 35.6 34.7V566.6h-71.3z"/>
  <g fill="#FFF">
    <path opacity=".3" d="M780.8 375.7c-9.3-10.2-8.2-26.2-3.7-37.1s4.3-19.5.8-25.2c7.5 8.9 3.8 21.4.8 29-3.5 8.7-4.5 22.8 2.1 33.3z"/>
    <path opacity=".3" d="M770.1 303.4c9.4 10.1 8.7 24.4 4.4 35.4s-4.1 23.8 2 31.6c-11.2-12.3-6.5-27.7-3.6-35.4 3.3-8.7 4-21.2-2.8-31.6z"/>
  </g>
</svg>
